<svg width="21" height="21" viewBox="0 0 21 21" fill="none" xmlns="http://www.w3.org/2000/svg">
<path d="M19.8436 19.003L14.8756 13.837C16.1079 12.3683 16.8023 10.523 16.844 8.6062C16.8857 6.68939 16.2722 4.8157 15.1049 3.29475C13.9376 1.77379 12.2863 0.696585 10.4239 0.241126C8.56156 -0.214334 6.59952 -0.0207914 4.86202 0.789773C3.12452 1.60034 1.71554 2.97941 0.867899 4.69913C0.0202594 6.41885 -0.215316 8.37629 0.200098 10.248C0.615513 12.1197 1.65706 13.7937 3.15263 14.9934C4.6482 16.1931 6.5083 16.8466 8.42557 16.846C10.1541 16.8505 11.8413 16.3176 13.2536 15.321L18.2586 20.526C18.3569 20.6371 18.4766 20.7271 18.6106 20.7907C18.7445 20.8543 18.89 20.8901 19.0382 20.8961C19.1864 20.902 19.3342 20.8779 19.4729 20.8253C19.6115 20.7726 19.7381 20.6925 19.8449 20.5897C19.9518 20.4868 20.0368 20.3635 20.0948 20.2269C20.1527 20.0904 20.1825 19.9436 20.1823 19.7953C20.1821 19.647 20.1519 19.5003 20.0935 19.364C20.0351 19.2276 19.9497 19.1045 19.8426 19.002L19.8436 19.003ZM8.42657 2.19301C9.65835 2.1932 10.8624 2.55866 11.8865 3.24317C12.9106 3.92768 13.7087 4.90048 14.1799 6.03858C14.6511 7.17667 14.7742 8.42893 14.5337 9.63701C14.2932 10.8451 13.6999 11.9547 12.8287 12.8256C11.9576 13.6964 10.8478 14.2894 9.63961 14.5295C8.43146 14.7696 7.17924 14.6461 6.04129 14.1745C4.90335 13.703 3.9308 12.9046 3.24662 11.8803C2.56244 10.856 2.19737 9.65179 2.19757 8.42001C2.19969 6.76881 2.8567 5.18587 4.02446 4.01849C5.19222 2.8511 6.77537 2.19459 8.42657 2.19301V2.19301Z" fill="white"/>
</svg>
